<?xml version="1.0" standalone="no"?>
<!DOCTYPE svg PUBLIC "-//W3C//DTD SVG 20010904//EN"
 "http://www.w3.org/TR/2001/REC-SVG-20010904/DTD/svg10.dtd">
<svg version="1.0" xmlns="http://www.w3.org/2000/svg"
 width="1347.000000pt" height="378.000000pt" viewBox="0 0 1347.000000 378.000000"
 preserveAspectRatio="xMidYMid meet">

<g transform="translate(0.000000,378.000000) scale(0.100000,-0.100000)"
fill="#000000" stroke="none">
<path d="M8780 3540 c0 -213 1 -220 20 -220 19 0 20 7 20 100 l0 100 84 0
c138 0 162 -18 173 -130 7 -65 14 -82 30 -72 9 6 10 28 4 85 -9 78 -28 117
-58 117 -22 0 -15 16 13 28 26 12 54 65 54 102 0 34 -28 79 -60 95 -21 11 -62
15 -155 15 l-125 0 0 -220z m274 164 c38 -39 36 -93 -5 -128 -28 -24 -38 -26
-130 -26 l-99 0 0 90 0 90 104 0 c98 0 105 -1 130 -26z"/>
<path d="M9780 3670 c0 -49 -3 -90 -6 -90 -3 0 -15 11 -26 25 -24 31 -76 46
-123 35 -70 -16 -105 -71 -105 -166 0 -102 51 -164 135 -164 40 0 105 31 105
50 0 23 19 8 22 -17 2 -16 8 -27 13 -26 6 2 11 87 13 223 2 191 0 220 -13 220
-12 0 -15 -16 -15 -90z m-38 -89 c33 -37 45 -104 28 -158 -17 -51 -36 -71 -80
-84 -47 -14 -85 2 -118 51 -20 30 -23 44 -20 99 4 59 7 66 42 98 34 32 43 35
80 30 29 -4 49 -15 68 -36z"/>
<path d="M9282 3640 c-68 -16 -104 -74 -104 -165 0 -73 20 -118 65 -145 39
-24 106 -26 147 -5 28 14 60 60 60 85 0 22 -26 8 -41 -23 -22 -44 -87 -69
-127 -47 -34 19 -72 76 -72 106 0 24 0 24 126 24 l127 0 -7 42 c-15 96 -87
148 -174 128z m98 -47 c17 -16 34 -43 39 -60 l10 -33 -110 0 c-72 0 -109 4
-109 11 0 25 32 76 58 91 40 25 77 22 112 -9z"/>
<path d="M9890 3515 c0 -133 10 -174 49 -195 45 -23 140 -2 154 35 10 26 27
17 27 -15 0 -16 5 -30 10 -30 6 0 10 62 10 166 0 128 -3 165 -12 162 -9 -3
-15 -40 -18 -119 -4 -88 -9 -122 -23 -142 -34 -52 -106 -58 -147 -14 -18 18
-20 36 -20 149 0 107 -2 128 -15 128 -13 0 -15 -21 -15 -125z"/>
<path d="M10265 3567 c30 -41 55 -78 55 -84 0 -5 -25 -43 -55 -83 -30 -40 -55
-76 -55 -80 0 -4 7 -7 15 -7 9 0 38 31 66 69 27 37 53 68 57 68 4 -1 27 -30
52 -65 27 -38 54 -65 67 -68 26 -5 27 -5 -45 90 -34 46 -51 77 -46 85 4 7 26
38 49 68 58 76 59 80 37 80 -11 0 -35 -23 -62 -60 -24 -33 -47 -60 -51 -60 -4
0 -29 27 -54 60 -29 37 -54 60 -66 60 -16 0 -10 -13 36 -73z"/>
<path d="M4340 2400 l0 -320 -320 0 -320 0 0 -75 0 -75 320 0 320 0 0 -320 0
-320 75 0 75 0 0 320 0 320 320 0 320 0 0 75 0 75 -320 0 -320 0 0 320 0 320
-75 0 -75 0 0 -320z"/>
<path d="M11960 2510 c-19 -19 -20 -33 -20 -349 0 -309 1 -330 19 -352 l19
-24 717 -3 716 -2 30 29 30 30 -3 325 c-3 302 -4 325 -22 345 -19 21 -20 21
-743 21 -710 0 -723 0 -743 -20z m1470 -29 c6 -12 10 -134 10 -325 0 -293 -1
-307 -20 -326 -20 -20 -33 -20 -719 -20 -623 0 -701 2 -715 16 -14 13 -16 58
-16 333 0 233 3 320 12 329 9 9 184 12 725 12 694 0 713 0 723 -19z"/>
<path d="M12721 2144 c0 -11 3 -14 6 -6 3 7 2 16 -1 19 -3 4 -6 -2 -5 -13z"/>
<path d="M9014 2506 c-17 -8 -34 -21 -38 -31 -3 -9 -6 -163 -6 -341 l0 -325
25 -24 24 -25 716 0 716 0 24 25 25 24 0 326 c0 194 -4 334 -10 345 -21 38
-51 40 -759 40 -553 -1 -692 -3 -717 -14z m1444 -38 c9 -9 12 -95 12 -327 0
-279 -2 -317 -17 -333 -15 -17 -51 -18 -712 -18 -614 0 -699 2 -719 16 -22 15
-22 16 -22 333 0 233 3 320 12 329 17 17 1429 17 1446 0z"/>
<path d="M9593 2165 c0 -27 2 -38 4 -22 2 15 2 37 0 50 -2 12 -4 0 -4 -28z"/>
<path d="M9441 2164 c0 -11 3 -14 6 -6 3 7 2 16 -1 19 -3 4 -6 -2 -5 -13z"/>
<path d="M10011 2164 c0 -11 3 -14 6 -6 3 7 2 16 -1 19 -3 4 -6 -2 -5 -13z"/>
<path d="M9732 2145 c0 -16 2 -22 5 -12 2 9 2 23 0 30 -3 6 -5 -1 -5 -18z"/>
<path d="M6029 2491 l-24 -19 0 -331 0 -330 23 -23 23 -23 720 0 721 0 19 24
c18 22 19 43 19 352 0 316 -1 330 -20 349 -20 20 -33 20 -739 20 -693 0 -720
-1 -742 -19z m1469 -346 c2 -301 1 -331 -15 -342 -27 -20 -1402 -19 -1429 1
-18 14 -19 31 -22 318 -2 190 1 315 7 331 l11 27 722 -2 723 -3 3 -330z"/>
<path d="M8630 2205 c0 -13 -62 -15 -495 -15 l-495 0 0 -25 0 -25 495 0 c433
0 495 -2 495 -15 0 -19 4 -19 71 0 131 37 133 38 107 48 -20 8 -166 47 -175
47 -1 0 -3 -7 -3 -15z"/>
<path d="M11600 2175 c0 -13 -64 -15 -497 -17 l-498 -3 -3 -22 -3 -23 500 0
c448 0 501 -2 501 -16 0 -10 6 -14 18 -10 9 3 44 12 77 20 33 7 71 18 83 23
23 9 22 10 -15 21 -56 17 -150 42 -157 42 -3 0 -6 -7 -6 -15z"/>
<path d="M6742 1563 c-6 -21 -17 -58 -22 -83 -6 -25 -13 -53 -16 -62 -4 -12 0
-18 10 -18 14 0 16 -54 16 -510 l0 -510 980 0 980 0 0 25 0 25 -955 0 -955 0
0 485 c0 424 2 485 15 485 19 0 19 -5 -6 93 -28 109 -33 116 -47 70z"/>
<path d="M13010 990 l0 -550 -1065 0 c-960 0 -1065 2 -1065 16 0 10 -6 14 -17
10 -10 -2 -38 -10 -63 -16 -25 -6 -62 -17 -83 -23 -37 -10 -38 -11 -15 -20 26
-10 159 -46 171 -47 4 0 7 7 7 15 0 13 130 15 1083 17 l1082 3 3 573 c2 567 2
572 -18 572 -20 0 -20 -6 -20 -550z"/>
<path d="M7359 758 c0 -18 -2 -55 -3 -81 -1 -26 2 -53 6 -60 4 -7 8 30 8 81 0
50 -2 92 -5 92 -3 0 -5 -15 -6 -32z"/>
<path d="M8094 700 c0 -52 1 -74 3 -47 2 26 2 68 0 95 -2 26 -3 4 -3 -48z"/>
<path d="M7880 712 c0 -81 6 -102 29 -102 14 1 14 2 -2 11 -14 8 -17 23 -16
80 1 38 -1 73 -5 76 -3 4 -6 -26 -6 -65z"/>
<path d="M11643 680 c1 -52 2 -73 4 -45 3 27 10 56 16 64 9 11 9 13 0 8 -8 -5
-13 5 -16 30 -2 21 -4 -5 -4 -57z"/>
<path d="M9024 748 c-53 -14 -53 -17 -54 -371 l0 -328 25 -24 24 -25 716 0
716 0 24 25 25 24 0 329 c0 268 -3 332 -14 348 -14 18 -36 19 -725 24 -391 3
-723 2 -737 -2z m1434 -40 c9 -9 12 -95 12 -327 0 -279 -2 -317 -17 -333 -15
-17 -51 -18 -712 -18 -614 0 -699 2 -719 16 -22 15 -22 16 -22 333 0 233 3
320 12 329 17 17 1429 17 1446 0z"/>
<path d="M9603 385 c0 -38 2 -53 4 -32 2 20 2 52 0 70 -2 17 -4 1 -4 -38z"/>
<path d="M7266 718 c-9 -12 -16 -32 -16 -43 0 -23 26 -65 41 -65 5 0 0 9 -11
20 -24 24 -26 57 -4 88 8 12 13 22 10 22 -3 0 -12 -10 -20 -22z"/>
<path d="M7526 727 c3 -10 9 -15 12 -12 3 3 0 11 -7 18 -10 9 -11 8 -5 -6z"/>
<path d="M7745 730 c-3 -6 1 -7 9 -4 18 7 21 14 7 14 -6 0 -13 -4 -16 -10z"/>
<path d="M8020 736 c0 -2 8 -10 18 -17 15 -13 16 -12 3 4 -13 16 -21 21 -21
13z"/>
<path d="M8167 730 c6 -9 13 -40 16 -70 l3 -55 2 56 c2 44 -2 60 -15 70 -16
12 -17 12 -6 -1z"/>
<path d="M7454 719 c-3 -6 2 -18 12 -27 17 -16 17 -16 5 0 -7 9 -10 22 -6 28
3 5 4 10 1 10 -3 0 -8 -5 -12 -11z"/>
<path d="M7687 692 c4 -33 1 -48 -13 -65 l-19 -22 23 19 c23 20 30 68 13 95
-6 10 -8 0 -4 -27z"/>
<path d="M7950 709 c-6 -11 -10 -27 -8 -35 2 -8 8 1 14 20 12 40 10 46 -6 15z"/>
<path d="M7591 704 c0 -11 3 -14 6 -6 3 7 2 16 -1 19 -3 4 -6 -2 -5 -13z"/>
<path d="M7820 705 c-3 -32 1 -79 9 -87 3 -4 5 12 3 35 -4 56 -9 77 -12 52z"/>
<path d="M11374 705 c-8 -20 2 -45 18 -45 10 0 10 3 -1 9 -8 5 -12 18 -8 30 6
24 -1 29 -9 6z"/>
<path d="M11430 716 c0 -2 8 -10 18 -17 15 -13 16 -12 3 4 -13 16 -21 21 -21
13z"/>
<path d="M11491 677 c-1 -51 12 -87 32 -87 8 0 7 4 -3 10 -9 5 -17 32 -21 67
l-6 58 -2 -48z"/>
<path d="M11588 668 c-3 -29 -1 -60 3 -68 5 -9 9 13 9 53 0 80 -6 88 -12 15z"/>
<path d="M11735 692 c14 -26 15 -39 6 -65 -9 -25 -9 -29 1 -19 18 18 15 80 -5
100 -17 16 -17 15 -2 -16z"/>
<path d="M11794 705 c-8 -20 2 -45 18 -45 10 0 10 3 -1 9 -8 5 -12 18 -8 30 6
24 -1 29 -9 6z"/>
<path d="M11850 716 c0 -2 8 -10 18 -17 15 -13 16 -12 3 4 -13 16 -21 21 -21
13z"/>
<path d="M11926 698 c-9 -12 -16 -32 -16 -43 0 -23 26 -65 41 -65 5 0 0 9 -11
20 -24 24 -26 57 -4 88 8 12 13 22 10 22 -3 0 -12 -10 -20 -22z"/>
<path d="M11990 716 c0 -2 8 -10 18 -17 15 -13 16 -12 3 4 -13 16 -21 21 -21
13z"/>
<path d="M12421 703 c7 -12 15 -20 18 -17 3 2 -3 12 -13 22 -17 16 -18 16 -5
-5z"/>
<path d="M12192 690 c0 -14 2 -19 5 -12 2 6 2 18 0 25 -3 6 -5 1 -5 -13z"/>
<path d="M12281 705 c1 -19 18 -51 18 -35 0 8 -4 22 -9 30 -5 8 -9 11 -9 5z"/>
<path d="M12345 699 c-4 -6 -5 -12 -2 -15 2 -3 7 2 10 11 7 17 1 20 -8 4z"/>
<path d="M12062 680 c0 -14 2 -19 5 -12 2 6 2 18 0 25 -3 6 -5 1 -5 -13z"/>
<path d="M7536 655 c4 -8 0 -23 -7 -33 -13 -15 -12 -16 4 -3 19 15 22 36 7 46
-6 3 -7 -1 -4 -10z"/>
<path d="M7734 655 c-8 -20 2 -45 18 -45 10 0 10 3 -1 9 -8 5 -12 18 -8 30 6
24 -1 29 -9 6z"/>
<path d="M12335 660 c-3 -5 -1 -10 4 -10 6 0 11 5 11 10 0 6 -2 10 -4 10 -3 0
-8 -4 -11 -10z"/>
<path d="M7591 644 c0 -11 3 -14 6 -6 3 7 2 16 -1 19 -3 4 -6 -2 -5 -13z"/>
<path d="M11432 648 c9 -7 18 -22 21 -33 4 -16 5 -14 6 6 1 16 -5 29 -15 33
-25 9 -29 7 -12 -6z"/>
<path d="M7950 641 c0 -6 4 -13 10 -16 6 -3 7 1 4 9 -7 18 -14 21 -14 7z"/>
<path d="M8028 628 c-10 -10 -14 -18 -9 -18 10 0 36 29 30 34 -2 1 -12 -6 -21
-16z"/>
<path d="M11867 629 c4 -13 8 -18 11 -10 2 7 -1 18 -6 23 -8 8 -9 4 -5 -13z"/>
<path d="M12291 643 c-1 -6 -4 -20 -7 -30 -5 -17 -5 -17 6 0 6 10 9 23 6 30
-3 9 -5 9 -5 0z"/>
<path d="M7462 624 c10 -10 20 -16 22 -13 3 3 -5 11 -17 18 -21 13 -21 12 -5
-5z"/>
<path d="M12191 624 c0 -11 3 -14 6 -6 3 7 2 16 -1 19 -3 4 -6 -2 -5 -13z"/>
<path d="M11360 621 c0 -5 5 -13 10 -16 6 -3 10 -2 10 4 0 5 -4 13 -10 16 -5
3 -10 2 -10 -4z"/>
<path d="M11780 621 c0 -10 29 -36 34 -30 1 2 -6 12 -16 22 -10 9 -18 13 -18
8z"/>
<path d="M11998 608 c-10 -10 -14 -18 -9 -18 10 0 36 29 30 34 -2 1 -12 -6
-21 -16z"/>
<path d="M12340 621 c0 -10 29 -36 34 -30 1 2 -6 12 -16 22 -10 9 -18 13 -18
8z"/>
<path d="M12416 605 c-11 -8 -15 -15 -9 -15 6 0 16 7 23 15 16 19 11 19 -14 0z"/>
</g>
</svg>
